{"title":"Stretch.2014.DVDRip.x264.AC3.RoSubbed-playSD","uid":11760231,"size":855933727,"categoryP":"video","categoryS":"movies","magnet":"?xt=urn:btih:62fc0a39ccf6c306026b5f6d736e232a3959b4ad&amp;dn=Stretch.2014.DVDRip.x264.AC3.RoSubbed-playSD&amp;tr=udp%3A%2F%2Ftracker.openbittorrent.com%3A80&amp;tr=udp%3A%2F%2Fopen.demonii.com%3A1337&amp;tr=udp%3A%2F%2Ftracker.coppersurfer.tk%3A6969&amp;tr=udp%3A%2F%2Fexodus.desync.com%3A6969","seeders":0,"leechers":0,"uploader":"TvTeam","files":5,"time":1426559393,"description":" &lt;a href=&quot;https://www.torrenting.com&quot; rel=&quot;nofollow&quot; target=&quot;_NEW&quot;&gt;https://www.torrenting.com&lt;/a&gt;\n\nSign up is OPEN - for the time being. Come and have fun.\n\n.General\nUnique ID                                : 237467264442686785388561736229320937967 (0xB2A6881304917692A045B0B7305451EF)\nComplete name                            : Stretch.2014.DVDRip.x264.AC3.RoSubbed-playSD.mkv\nFormat                                   : Matroska\nFormat version                           : Version 4 / Version 2\nFile size                                : 805 MiB\nDuration                                 : 1h 30mn\nOverall bit rate                         : 1 247 Kbps\nEncoded date                             : UTC 2015-03-14 18:23:00\nWriting application                      : mkvmerge v7.2.0 ('On Every Street') 32bit built on Sep 13 2014 15:42:11\nWriting library                          : libebml v1.3.0 + libmatroska v1.4.1\nDURATION                                 : 01:30:13.344000000\nNUMBER_OF_FRAMES                         : 169167\nNUMBER_OF_BYTES                          : 303147264\n_STATISTICS_WRITING_APP                  : mkvmerge v7.2.0 ('On Every Street') 32bit built on Sep 13 2014 15:42:11\n_STATISTICS_WRITING_DATE_UTC             : 2015-03-14 18:23:00\n_STATISTICS_TAGS                         : BPS DURATION NUMBER_OF_FRAMES NUMBER_OF_BYTES\n\nVideo\nID                                       : 1\nFormat                                   : AVC\nFormat/Info                              : Advanced Video Codec\nFormat profile                           : &lt;a class=&quot;__cf_email__&quot; href=&quot;/cdn-cgi/l/email-protection&quot; data-cfemail=&quot;6b23020c032b2759455a&quot;&gt;[email&amp;#160;protected]&lt;/a&gt;&lt;script cf-hash='f9e31' type=&quot;text/javascript&quot;&gt;\n/* &lt;![CDATA[ */!function(){try{var t=&quot;currentScript&quot;in document?document.currentScript:function(){for(var t=document.getElementsByTagName(&quot;script&quot;),e=t.length;e--;)if(t[e].getAttribute(&quot;cf-hash&quot;))return t[e]}();if(t&amp;&amp;t.previousSibling){var e,r,n,i,c=t.previousSibling,a=c.getAttribute(&quot;data-cfemail&quot;);if(a){for(e=&quot;&quot;,r=parseInt(a.substr(0,2),16),n=2;a.length-n;n+=2)i=parseInt(a.substr(n,2),16)^r,e+=String.fromCharCode(i);e=document.createTextNode(e),c.parentNode.replaceChild(e,c)}}}catch(u){}}();/* ]]&gt; */&lt;/script&gt;\nFormat settings, CABAC                   : Yes\nFormat settings, ReFrames                : 3 frames\nCodec ID                                 : V_MPEG4/ISO/AVC\nDuration                                 : 1h 30mn\nBit rate                                 : 775 Kbps\nWidth                                    : 704 pixels\nHeight                                   : 288 pixels\nDisplay aspect ratio                     : 2.40:1\nFrame rate mode                          : Constant\nFrame rate                               : 25.000 fps\nColor space                              : YUV\nChroma subsampling                       : 4:2:0\nBit depth                                : 8 bits\nScan type                                : Progressive\nBits/(Pixel*Frame)                       : 0.153\nStream size                              : 500 MiB (62%)\nWriting library                          : x264 core 125 r2200 999b753\nEncoding settings                        : cabac=1 / ref=3 / deblock=1:-1:-1 / analyse=0x3:0x113 / me=umh / subme=9 / psy=1 / psy_rd=1.00:0.15 / mixed_ref=1 / me_range=18 / chroma_me=1 / trellis=1 / 8x8dct=1 / cqm=0 / deadzone=21,11 / fast_pskip=1 / chroma_qp_offset=-3 / threads=12 / lookahead_threads=2 / sliced_threads=0 / nr=0 / decimate=1 / interlaced=0 / bluray_compat=0 / constrained_intra=0 / bframes=3 / b_pyramid=1 / b_adapt=1 / b_bias=0 / direct=1 / weightb=1 / open_gop=0 / weightp=2 / keyint=250 / keyint_min=25 / scenecut=40 / intra_refresh=0 / rc_lookahead=40 / rc=crf / mbtree=1 / crf=19.0 / qcomp=0.60 / qpmin=0 / qpmax=69 / qpstep=4 / ip_ratio=1.40 / aq=1:1.00\nLanguage                                 : English\nDefault                                  : Yes\nForced                                   : No\nDURATION                                 : 01:30:13.480000000\nNUMBER_OF_FRAMES                         : 135337\nNUMBER_OF_BYTES                          : 539826481\n_STATISTICS_WRITING_APP                  : mkvmerge v7.2.0 ('On Every Street') 32bit built on Sep 13 2014 15:42:11\n_STATISTICS_WRITING_DATE_UTC             : 2015-03-14 18:23:00\n_STATISTICS_TAGS                         : BPS DURATION NUMBER_OF_FRAMES NUMBER_OF_BYTES\n\nAudio\nID                                       : 2\nFormat                                   : AC-3\nFormat/Info                              : Audio Coding 3\nMode extension                           : CM (complete main)\nFormat settings, Endianness              : Big\nCodec ID                                 : A_AC3\nDuration                                 : 1h 30mn\nBit rate mode                            : Constant\nBit rate                                 : 448 Kbps\nChannel(s)                               : 6 channels\nChannel positions                        : Front: L C R, Side: L R, LFE\nSampling rate                            : 48.0 KHz\nBit depth                                : 16 bits\nCompression mode                         : Lossy\nDelay relative to video                  : 8ms\nStream size                              : 289 MiB (36%)\nDefault                                  : Yes\nForced                                   : No","torrent":{"xt":"urn:btih:62fc0a39ccf6c306026b5f6d736e232a3959b4ad","amp;dn":"Stretch.2014.DVDRip.x264.AC3.RoSubbed-playSD","amp;tr":["udp%3A%2F%2Ftracker.openbittorrent.com%3A80","udp%3A%2F%2Fopen.demonii.com%3A1337","udp%3A%2F%2Ftracker.coppersurfer.tk%3A6969","udp%3A%2F%2Fexodus.desync.com%3A6969"],"infoHash":"62fc0a39ccf6c306026b5f6d736e232a3959b4ad","infoHashBuffer":{"type":"Buffer","data":[98,252,10,57,204,246,195,6,2,107,95,109,115,110,35,42,57,89,180,173]},"announce":[],"urlList":[]}}